# Blender v2.79 (sub 0) OBJ File: ''
# www.blender.org
mtllib lock.mtl
o Cube.001
v 0.300000 -1.000000 -1.000000
v 0.300000 -1.000000 1.000000
v -0.300000 -1.000000 1.000000
v -0.300000 -1.000000 -1.000000
v 0.300000 1.000000 -0.999999
v -0.300000 1.000000 -1.000000
v -0.300000 1.000000 1.000000
v 0.300000 1.000000 1.000001
vt 0.000000 0.000000
vt 0.000000 0.000000
vt 0.000000 0.000000
vt 0.000000 0.000000
vt 0.000000 0.000000
vt 0.000000 0.000000
vt 0.000000 0.000000
vt 0.000000 0.000000
vt 1.000000 0.000000
vt 1.000000 1.000000
vt 0.000000 1.000000
vn 0.0000 -1.0000 -0.0000
vn -0.0000 1.0000 0.0000
vn -0.0000 -0.0000 1.0000
vn -1.0000 0.0000 0.0000
vn 0.0000 0.0000 -1.0000
vn 1.0000 0.0000 0.0000
g Cube.001_Cube.001_Material.001
usemtl Material.001
s 1
f 1/1/1 2/2/1 3/3/1 4/4/1
f 5/5/2 6/6/2 7/7/2 8/8/2
f 2/2/3 8/8/3 7/7/3 3/3/3
f 3/3/4 7/7/4 6/6/4 4/4/4
f 5/5/5 1/1/5 4/4/5 6/6/5
g Cube.001_Cube.001_Material.002
usemtl Material.002
f 1/1/6 5/9/6 8/10/6 2/11/6
