# Blender v2.79 (sub 0) OBJ File: 'Bedroom.blend'
# www.blender.org
mtllib desk.mtl
o Vert.002
v -31.352942 13.166660 36.957470
v -17.852940 13.166660 36.957470
v -31.352942 13.166660 36.957470
v -17.852940 13.166660 23.457470
v -31.352942 13.166660 23.457470
v -31.352942 11.816660 36.957470
v -17.852940 11.816660 36.957470
v -31.352942 11.816660 36.957470
v -17.852940 11.816660 23.457470
v -31.352942 11.816660 23.457470
v -30.542942 11.816660 36.147472
v -19.067940 11.816660 36.147472
v -30.542942 11.816660 36.147472
v -19.067940 11.816660 24.672470
v -30.542942 11.816660 24.672470
v -30.542942 12.491660 36.147472
v -19.067940 12.491660 36.147472
v -30.542942 12.491660 36.147472
v -19.067940 12.491660 24.672470
v -30.542942 12.491660 24.672470
v -30.002941 0.341658 26.157471
v -30.002941 12.491661 26.157471
v -30.002941 0.341658 24.807472
v -30.002941 12.491661 24.807472
v -28.652941 0.341658 26.157471
v -28.652941 12.491661 26.157471
v -28.652941 0.341658 24.807472
v -28.652941 12.491661 24.807472
v -20.552940 0.341658 26.157471
v -20.552940 12.491661 26.157471
v -20.552940 0.341658 24.807472
v -20.552940 12.491661 24.807472
v -19.202942 0.341658 26.157471
v -19.202942 12.491661 26.157471
v -19.202942 0.341658 24.807472
v -19.202942 12.491661 24.807472
v -30.002941 0.341658 35.607471
v -30.002941 12.491661 35.607471
v -30.002941 0.341658 34.257473
v -30.002941 12.491661 34.257473
v -28.652941 0.341658 35.607471
v -28.652941 12.491661 35.607471
v -28.652941 0.341658 34.257473
v -28.652941 12.491661 34.257473
v -20.552940 0.341658 35.607471
v -20.552940 12.491661 35.607471
v -20.552940 0.341658 34.257473
v -20.552940 12.491661 34.257473
v -19.202942 0.341658 35.607471
v -19.202942 12.491661 35.607471
v -19.202942 0.341658 34.257473
v -19.202942 12.491661 34.257473
v -30.171692 0.071658 24.638721
v -30.171692 0.071658 26.326221
v -28.484190 0.071658 24.638721
v -28.484190 0.071658 26.326221
v -20.721691 0.071658 24.638721
v -20.721691 0.071658 26.326221
v -19.034191 0.071658 24.638721
v -19.034191 0.071658 26.326221
v -30.171692 0.071658 34.088722
v -30.171692 0.071658 35.776222
v -28.484190 0.071658 34.088722
v -28.484190 0.071658 35.776222
v -20.721691 0.071658 34.088722
v -20.721691 0.071658 35.776222
v -19.034191 0.071658 34.088722
v -19.034191 0.071658 35.776222
vn 1.0000 0.0000 0.0000
vn 0.0000 0.0000 -1.0000
vn -1.0000 0.0000 0.0000
vn 0.0000 0.0000 1.0000
vn 0.0000 -1.0000 0.0000
vn 0.0000 1.0000 0.0000
vn 0.0000 0.5300 -0.8480
vn 0.0000 0.5300 0.8480
vn -0.8480 0.5300 0.0000
vn 0.8480 0.5300 0.0000
g Vert.002_Vert.002_Tabletop
usemtl Tabletop
s off
f 18//1 13//1 15//1 20//1
f 17//2 12//2 13//2 18//2
f 17//3 19//3 14//3 12//3
f 19//4 20//4 15//4 14//4
f 8//5 10//5 15//5 13//5
f 10//3 8//3 3//3 5//3
f 3//6 2//6 4//6 5//6
f 8//5 13//5 12//5 7//5
f 9//5 7//5 12//5 14//5
f 14//5 15//5 10//5 9//5
f 10//2 5//2 4//2 9//2
f 2//1 7//1 9//1 4//1
f 8//4 7//4 2//4 3//4
f 20//5 19//5 17//5 18//5
g Vert.002_Vert.002_Table_Legs
usemtl Table_Legs
f 22//3 24//3 23//3 21//3
f 24//2 28//2 27//2 23//2
f 28//1 26//1 25//1 27//1
f 26//4 22//4 21//4 25//4
f 23//7 27//7 55//7 53//7
f 26//6 28//6 24//6 22//6
f 30//3 32//3 31//3 29//3
f 32//2 36//2 35//2 31//2
f 36//1 34//1 33//1 35//1
f 34//4 30//4 29//4 33//4
f 41//8 37//8 62//8 64//8
f 34//6 36//6 32//6 30//6
f 38//3 40//3 39//3 37//3
f 40//2 44//2 43//2 39//2
f 44//1 42//1 41//1 43//1
f 42//4 38//4 37//4 41//4
f 47//7 51//7 67//7 65//7
f 42//6 44//6 40//6 38//6
f 46//3 48//3 47//3 45//3
f 48//2 52//2 51//2 47//2
f 52//1 50//1 49//1 51//1
f 50//4 46//4 45//4 49//4
f 37//9 39//9 61//9 62//9
f 50//6 52//6 48//6 46//6
f 54//5 53//5 55//5 56//5
f 58//5 57//5 59//5 60//5
f 62//5 61//5 63//5 64//5
f 66//5 65//5 67//5 68//5
f 35//10 33//10 60//10 59//10
f 29//9 31//9 57//9 58//9
f 39//7 43//7 63//7 61//7
f 51//10 49//10 68//10 67//10
f 33//8 29//8 58//8 60//8
f 27//10 25//10 56//10 55//10
f 45//9 47//9 65//9 66//9
f 49//8 45//8 66//8 68//8
f 21//9 23//9 53//9 54//9
f 31//7 35//7 59//7 57//7
f 43//10 41//10 64//10 63//10
f 25//8 21//8 54//8 56//8
l 11 16
o Vert.001
v 18.647058 13.166660 36.957470
v 32.147060 13.166660 36.957470
v 18.647058 13.166660 36.957470
v 32.147060 13.166660 23.457470
v 18.647058 13.166660 23.457470
v 18.647058 11.816660 36.957470
v 32.147060 11.816660 36.957470
v 18.647058 11.816660 36.957470
v 32.147060 11.816660 23.457470
v 18.647058 11.816660 23.457470
v 19.457058 11.816660 36.147472
v 30.932060 11.816660 36.147472
v 19.457058 11.816660 36.147472
v 30.932060 11.816660 24.672470
v 19.457058 11.816660 24.672470
v 19.457058 12.491660 36.147472
v 30.932060 12.491660 36.147472
v 19.457058 12.491660 36.147472
v 30.932060 12.491660 24.672470
v 19.457058 12.491660 24.672470
v 19.997059 0.341658 26.157471
v 19.997059 12.491661 26.157471
v 19.997059 0.341658 24.807472
v 19.997059 12.491661 24.807472
v 21.347059 0.341658 26.157471
v 21.347059 12.491661 26.157471
v 21.347059 0.341658 24.807472
v 21.347059 12.491661 24.807472
v 29.447060 0.341658 26.157471
v 29.447060 12.491661 26.157471
v 29.447060 0.341658 24.807472
v 29.447060 12.491661 24.807472
v 30.797058 0.341658 26.157471
v 30.797058 12.491661 26.157471
v 30.797058 0.341658 24.807472
v 30.797058 12.491661 24.807472
v 19.997059 0.341658 35.607471
v 19.997059 12.491661 35.607471
v 19.997059 0.341658 34.257473
v 19.997059 12.491661 34.257473
v 21.347059 0.341658 35.607471
v 21.347059 12.491661 35.607471
v 21.347059 0.341658 34.257473
v 21.347059 12.491661 34.257473
v 29.447060 0.341658 35.607471
v 29.447060 12.491661 35.607471
v 29.447060 0.341658 34.257473
v 29.447060 12.491661 34.257473
v 30.797058 0.341658 35.607471
v 30.797058 12.491661 35.607471
v 30.797058 0.341658 34.257473
v 30.797058 12.491661 34.257473
v 19.828308 0.071658 24.638721
v 19.828308 0.071658 26.326221
v 21.515810 0.071658 24.638721
v 21.515810 0.071658 26.326221
v 29.278309 0.071658 24.638721
v 29.278309 0.071658 26.326221
v 30.965809 0.071658 24.638721
v 30.965809 0.071658 26.326221
v 19.828308 0.071658 34.088722
v 19.828308 0.071658 35.776222
v 21.515810 0.071658 34.088722
v 21.515810 0.071658 35.776222
v 29.278309 0.071658 34.088722
v 29.278309 0.071658 35.776222
v 30.965809 0.071658 34.088722
v 30.965809 0.071658 35.776222
vn 1.0000 0.0000 0.0000
vn 0.0000 0.0000 -1.0000
vn -1.0000 0.0000 0.0000
vn 0.0000 0.0000 1.0000
vn 0.0000 -1.0000 0.0000
vn 0.0000 1.0000 0.0000
vn 0.0000 0.5300 -0.8480
vn 0.0000 0.5300 0.8480
vn -0.8480 0.5300 0.0000
vn 0.8480 0.5300 0.0000
g Vert.001_Vert.001_Tabletop
usemtl Tabletop
s off
f 86//11 81//11 83//11 88//11
f 85//12 80//12 81//12 86//12
f 85//13 87//13 82//13 80//13
f 87//14 88//14 83//14 82//14
f 76//15 78//15 83//15 81//15
f 78//13 76//13 71//13 73//13
f 71//16 70//16 72//16 73//16
f 76//15 81//15 80//15 75//15
f 77//15 75//15 80//15 82//15
f 82//15 83//15 78//15 77//15
f 78//12 73//12 72//12 77//12
f 70//11 75//11 77//11 72//11
f 76//14 75//14 70//14 71//14
f 88//15 87//15 85//15 86//15
g Vert.001_Vert.001_Table_Legs
usemtl Table_Legs
f 90//13 92//13 91//13 89//13
f 92//12 96//12 95//12 91//12
f 96//11 94//11 93//11 95//11
f 94//14 90//14 89//14 93//14
f 91//17 95//17 123//17 121//17
f 94//16 96//16 92//16 90//16
f 98//13 100//13 99//13 97//13
f 100//12 104//12 103//12 99//12
f 104//11 102//11 101//11 103//11
f 102//14 98//14 97//14 101//14
f 109//18 105//18 130//18 132//18
f 102//16 104//16 100//16 98//16
f 106//13 108//13 107//13 105//13
f 108//12 112//12 111//12 107//12
f 112//11 110//11 109//11 111//11
f 110//14 106//14 105//14 109//14
f 115//17 119//17 135//17 133//17
f 110//16 112//16 108//16 106//16
f 114//13 116//13 115//13 113//13
f 116//12 120//12 119//12 115//12
f 120//11 118//11 117//11 119//11
f 118//14 114//14 113//14 117//14
f 105//19 107//19 129//19 130//19
f 118//16 120//16 116//16 114//16
f 122//15 121//15 123//15 124//15
f 126//15 125//15 127//15 128//15
f 130//15 129//15 131//15 132//15
f 134//15 133//15 135//15 136//15
f 103//20 101//20 128//20 127//20
f 97//19 99//19 125//19 126//19
f 107//17 111//17 131//17 129//17
f 119//20 117//20 136//20 135//20
f 101//18 97//18 126//18 128//18
f 95//20 93//20 124//20 123//20
f 113//19 115//19 133//19 134//19
f 117//18 113//18 134//18 136//18
f 89//19 91//19 121//19 122//19
f 99//17 103//17 127//17 125//17
f 111//20 109//20 132//20 131//20
f 93//18 89//18 122//18 124//18
l 79 84
